<svg xmlns="http://www.w3.org/2000/svg" data-name="Icon Line" viewBox="0 0 64 64" id="dictionary"><path d="M54.24,60.15h-8v-2A3.76,3.76,0,0,0,50,54.4V9.52a3.75,3.75,0,0,0-3.75-3.75v-2h8A5.76,5.76,0,0,1,60,9.52V54.4A5.76,5.76,0,0,1,54.24,60.15Zm-3.64-2h3.64A3.76,3.76,0,0,0,58,54.4V9.52a3.75,3.75,0,0,0-3.75-3.75H50.6A5.71,5.71,0,0,1,52,9.52V54.4A5.73,5.73,0,0,1,50.6,58.15Z"></path><path d="M46.25,60.15H12.1A5.76,5.76,0,0,1,6.35,54.4V9.52A5.76,5.76,0,0,1,12.1,3.77H46.25A5.76,5.76,0,0,1,52,9.52V54.4A5.76,5.76,0,0,1,46.25,60.15ZM12.1,5.77A3.75,3.75,0,0,0,8.35,9.52V54.4a3.76,3.76,0,0,0,3.75,3.75H46.25A3.76,3.76,0,0,0,50,54.4V9.52a3.75,3.75,0,0,0-3.75-3.75Z"></path><path d="M53 54.62H51a1 1 0 01-1-1V9.52a1 1 0 011-1h2a3.6 3.6 0 013.6 3.6V51A3.61 3.61 0 0153 54.62zm-1-2h1a1.6 1.6 0 001.6-1.6V12.12a1.6 1.6 0 00-1.6-1.6H52zM22.22 27.92H20.59a1 1 0 01-.94-.66l-.7-2H15.21l-.71 2a1 1 0 01-.94.66H11.94A1 1 0 0111 26.58l4.26-11.71a1 1 0 01.94-.66H18a1 1 0 01.94.66l4.24 11.71a1 1 0 01-.94 1.34zm-5.85-5.87h1.42l-.71-2z"></path><rect width="8.74" height="3.3" x="24.44" y="19.08" rx="1"></rect><path d="M43.82 27.92H36.24a1 1 0 01-1-1V25.7a1.08 1.08 0 01.15-.52l4.77-7.7H36.31a1 1 0 01-1-1V15.14a1 1 0 011-1h7.47a1 1 0 011 1v1.22a1 1 0 01-.15.52l-4.77 7.71h4a1 1 0 011 1v1.33A1 1 0 0143.82 27.92zM52 45.57H6.35V34.28H52zm-43.65-2H50V36.28H8.35z"></path></svg>
