<svg width="14" height="14" viewBox="0 0 14 14" fill="none" xmlns="http://www.w3.org/2000/svg">
<g clip-path="url(#clip0_564_90173)">
<path d="M2.74003 5.73183C2.72762 5.74873 2.71728 5.76707 2.70923 5.78643C2.70923 5.78643 2.70923 5.79343 2.70923 5.79763C2.70315 5.81714 2.69985 5.83741 2.69943 5.85783V5.85783C2.69985 5.87872 2.70315 5.89945 2.70923 5.91943C2.70923 5.91943 2.70923 5.92643 2.70923 5.92923C2.71696 5.94876 2.72732 5.96713 2.74003 5.98383V5.98383L6.83503 11.1218C6.84495 11.1356 6.85728 11.1475 6.87143 11.1568H6.87983C6.89319 11.1667 6.90778 11.1747 6.92323 11.1806H6.93863C6.97771 11.1937 7.01996 11.1937 7.05903 11.1806H7.07443C7.08989 11.1747 7.10448 11.1667 7.11783 11.1568H7.12623C7.14039 11.1475 7.15272 11.1356 7.16263 11.1218L11.2576 5.98383C11.2868 5.94644 11.3027 5.90037 11.3027 5.85293C11.3027 5.8055 11.2868 5.75943 11.2576 5.72203L9.69383 3.76203C9.67379 3.73758 9.64858 3.71788 9.62002 3.70432C9.59146 3.69077 9.56025 3.6837 9.52863 3.68363H4.47043C4.43882 3.6837 4.40761 3.69077 4.37905 3.70432C4.35049 3.71788 4.32528 3.73758 4.30523 3.76203L2.74143 5.72203C2.74143 5.72203 2.74003 5.73043 2.74003 5.73183ZM5.35383 6.06923L6.50323 10.0354L3.34203 6.06923H5.35383ZM10.6584 6.06923L7.49723 10.0354L8.64663 6.06923H10.6584ZM7.00023 10.2426L5.79063 6.06923H8.20983L7.00023 10.2426ZM10.6584 5.64923H8.64663L8.20003 4.10923H9.42923L10.6584 5.64923ZM7.76323 4.10923L8.20983 5.64923H5.79063L6.23723 4.10923H7.76323ZM4.57123 4.10923H5.80043L5.35383 5.64923H3.34203L4.57123 4.10923ZM3.15163 3.44843C3.17107 3.468 3.19419 3.48352 3.21967 3.4941C3.24514 3.50467 3.27245 3.51009 3.30003 3.51003C3.35562 3.50953 3.40883 3.48745 3.44843 3.44843C3.48742 3.40888 3.50928 3.35557 3.50928 3.30003C3.50928 3.2445 3.48742 3.19119 3.44843 3.15163L2.69383 2.39703C2.65403 2.35994 2.60137 2.33975 2.54697 2.34071C2.49256 2.34167 2.44066 2.3637 2.40218 2.40218C2.3637 2.44066 2.34167 2.49256 2.34071 2.54697C2.33975 2.60137 2.35994 2.65403 2.39703 2.69383L3.15163 3.44843ZM1.76703 6.79023H0.700234C0.644539 6.79023 0.591125 6.81236 0.551742 6.85174C0.512359 6.89112 0.490234 6.94454 0.490234 7.00023C0.490234 7.05593 0.512359 7.10934 0.551742 7.14873C0.591125 7.18811 0.644539 7.21023 0.700234 7.21023H1.76703C1.82273 7.21023 1.87614 7.18811 1.91553 7.14873C1.95491 7.10934 1.97703 7.05593 1.97703 7.00023C1.97703 6.94454 1.95491 6.89112 1.91553 6.85174C1.87614 6.81236 1.82273 6.79023 1.76703 6.79023V6.79023ZM3.15163 10.552L2.39703 11.3066C2.37739 11.326 2.3618 11.3491 2.35116 11.3746C2.34051 11.4001 2.33503 11.4274 2.33503 11.455C2.33503 11.4826 2.34051 11.51 2.35116 11.5354C2.3618 11.5609 2.37739 11.584 2.39703 11.6034C2.43641 11.6428 2.48978 11.6648 2.54543 11.6648C2.60108 11.6648 2.65446 11.6428 2.69383 11.6034L3.44843 10.8488C3.48553 10.809 3.50572 10.7564 3.50476 10.702C3.5038 10.6476 3.48176 10.5957 3.44329 10.5572C3.40481 10.5187 3.35291 10.4967 3.2985 10.4957C3.2441 10.4947 3.19144 10.5149 3.15163 10.552V10.552ZM7.00023 12.0234C6.94454 12.0234 6.89112 12.0456 6.85174 12.0849C6.81236 12.1243 6.79023 12.1777 6.79023 12.2334V13.3002C6.79023 13.3559 6.81236 13.4093 6.85174 13.4487C6.89112 13.4881 6.94454 13.5102 7.00023 13.5102C7.05593 13.5102 7.10934 13.4881 7.14873 13.4487C7.18811 13.4093 7.21023 13.3559 7.21023 13.3002V12.2334C7.21023 12.1777 7.18811 12.1243 7.14873 12.0849C7.10934 12.0456 7.05593 12.0234 7.00023 12.0234V12.0234ZM10.8488 10.552C10.809 10.5149 10.7564 10.4947 10.702 10.4957C10.6476 10.4967 10.5957 10.5187 10.5572 10.5572C10.5187 10.5957 10.4967 10.6476 10.4957 10.702C10.4947 10.7564 10.5149 10.809 10.552 10.8488L11.3066 11.6034C11.346 11.6428 11.3994 11.6648 11.455 11.6648C11.5107 11.6648 11.5641 11.6428 11.6034 11.6034C11.6231 11.584 11.6387 11.5609 11.6493 11.5354C11.66 11.51 11.6654 11.4826 11.6654 11.455C11.6654 11.4274 11.66 11.4001 11.6493 11.3746C11.6387 11.3491 11.6231 11.326 11.6034 11.3066L10.8488 10.552ZM13.3002 6.79023H12.2334C12.1777 6.79023 12.1243 6.81236 12.0849 6.85174C12.0456 6.89112 12.0234 6.94454 12.0234 7.00023C12.0234 7.05593 12.0456 7.10934 12.0849 7.14873C12.1243 7.18811 12.1777 7.21023 12.2334 7.21023H13.3002C13.3559 7.21023 13.4093 7.18811 13.4487 7.14873C13.4881 7.10934 13.5102 7.05593 13.5102 7.00023C13.5102 6.94454 13.4881 6.89112 13.4487 6.85174C13.4093 6.81236 13.3559 6.79023 13.3002 6.79023V6.79023ZM11.3066 2.39703L10.552 3.15163C10.513 3.19119 10.4912 3.2445 10.4912 3.30003C10.4912 3.35557 10.513 3.40888 10.552 3.44843C10.5916 3.48745 10.6448 3.50953 10.7004 3.51003C10.728 3.51009 10.7553 3.50467 10.7808 3.4941C10.8063 3.48352 10.8294 3.468 10.8488 3.44843L11.6034 2.69383C11.6405 2.65403 11.6607 2.60137 11.6598 2.54697C11.6588 2.49256 11.6368 2.44066 11.5983 2.40218C11.5598 2.3637 11.5079 2.34167 11.4535 2.34071C11.3991 2.33975 11.3464 2.35994 11.3066 2.39703ZM7.00023 1.97703C7.05593 1.97703 7.10934 1.95491 7.14873 1.91553C7.18811 1.87614 7.21023 1.82273 7.21023 1.76703V0.700234C7.21023 0.644539 7.18811 0.591125 7.14873 0.551742C7.10934 0.512359 7.05593 0.490234 7.00023 0.490234C6.94454 0.490234 6.89112 0.512359 6.85174 0.551742C6.81236 0.591125 6.79023 0.644539 6.79023 0.700234V1.76703C6.79023 1.82273 6.81236 1.87614 6.85174 1.91553C6.89112 1.95491 6.94454 1.97703 7.00023 1.97703V1.97703Z" fill="black" fill-opacity="0.45"/>
</g>
<defs>
<clipPath id="clip0_564_90173">
<rect width="14" height="14" fill="white"/>
</clipPath>
</defs>
</svg>
