<svg width="274" height="48" viewBox="0 0 274 48" fill="none" xmlns="http://www.w3.org/2000/svg">
<g clip-path="url(#clip0_37_4310)">
<path d="M19.4399 27.99C19.4399 34.995 25.8374 40.6725 33.7199 40.6725C34.7474 40.6725 35.7449 40.575 36.7124 40.3875C43.5224 43.5225 46.6799 43.2825 47.5649 42.8325C47.8199 42.6975 47.8349 42.3375 47.6099 42.1575C44.8724 40.035 44.0174 37.9125 43.7549 37.005C46.3799 34.71 48.0074 31.515 48.0074 27.99C48.0074 20.985 41.6099 15.315 33.7274 15.315C25.8299 15.315 19.4399 20.985 19.4399 27.99Z" fill="#A8071A"/>
<path d="M30.8625 30.0525L29.22 35.025H27.1125L32.4825 19.2225H34.9425L40.335 35.025H38.1525L36.465 30.0525H30.8625ZM36.0375 28.4625L34.4925 23.9175C34.14 22.8825 33.9075 21.945 33.675 21.0375H33.63C33.3975 21.975 33.135 22.935 32.835 23.895L31.29 28.4625H36.0375Z" fill="white"/>
<path d="M28.56 17.58C28.56 24.585 22.1625 30.2625 14.28 30.2625C13.2525 30.2625 12.255 30.165 11.2875 29.9775C4.4775 33.1125 1.32 32.8725 0.435 32.4225C0.18 32.2875 0.165 31.9275 0.39 31.7475C3.1275 29.625 3.9825 27.5025 4.245 26.595C1.6275 24.3 0 21.105 0 17.58C0 10.575 6.3975 4.90501 14.28 4.90501C22.17 4.89751 28.56 10.575 28.56 17.58Z" fill="#40A9FF"/>
<path d="M22.0725 23.2875C18.6 23.145 16.3275 22.1325 14.835 20.895C17.475 18.045 18.57 14.43 18.9075 13.0275H21.51C21.699 13.0275 21.8802 12.9524 22.0138 12.8188C22.1475 12.6852 22.2225 12.504 22.2225 12.315C22.2225 12.126 22.1475 11.9448 22.0138 11.8112C21.8802 11.6776 21.699 11.6025 21.51 11.6025H15.06V9.09C15.06 8.90104 14.985 8.71981 14.8513 8.58619C14.7177 8.45257 14.5365 8.3775 14.3475 8.3775C14.1586 8.3775 13.9773 8.45257 13.8437 8.58619C13.7101 8.71981 13.635 8.90104 13.635 9.09V11.6025H7.18502C6.99605 11.6025 6.81483 11.6776 6.68121 11.8112C6.54759 11.9448 6.47252 12.126 6.47252 12.315C6.47252 12.504 6.54759 12.6852 6.68121 12.8188C6.81483 12.9524 6.99605 13.0275 7.18502 13.0275H17.445C17.07 14.4675 16.0575 17.4975 13.83 19.8975C12.195 17.9625 12.03 15.9 12.015 15.7425C12.0019 15.554 11.9151 15.3782 11.7733 15.2533C11.6315 15.1283 11.4462 15.0643 11.2575 15.075C10.86 15.0975 10.56 15.435 10.59 15.8325C10.59 15.8775 10.785 18.4875 12.8175 20.8725C11.235 22.2075 9.18002 23.19 6.49502 23.3025C6.30605 23.3065 6.12641 23.3854 5.9956 23.5218C5.86479 23.6582 5.79354 23.841 5.79752 24.03C5.8015 24.219 5.88038 24.3986 6.01681 24.5294C6.15325 24.6602 6.33605 24.7315 6.52502 24.7275H6.55502C9.67502 24.5925 12.0375 23.4375 13.83 21.885C15.525 23.3625 18.105 24.5625 22.0275 24.7275H22.0575C22.44 24.7275 22.755 24.4275 22.77 24.045C22.7775 23.64 22.47 23.3025 22.0725 23.2875Z" fill="white"/>
</g>
<path d="M55.52 35C55.2853 35 55.104 34.936 54.976 34.808C54.848 34.6587 54.784 34.4773 54.784 34.264V13.336C54.784 13.1227 54.848 12.952 54.976 12.824C55.104 12.6747 55.2853 12.6 55.52 12.6H57.216C57.4293 12.6 57.6 12.6747 57.728 12.824C57.856 12.952 57.92 13.1227 57.92 13.336V32.216H68.576C68.8107 32.216 68.992 32.2907 69.12 32.44C69.248 32.568 69.312 32.7493 69.312 32.984V34.264C69.312 34.4773 69.248 34.6587 69.12 34.808C68.992 34.936 68.8107 35 68.576 35H55.52ZM77.0393 35.32C75.9726 35.32 75.0019 35.1067 74.1273 34.68C73.2526 34.2533 72.5486 33.6773 72.0153 32.952C71.4819 32.2267 71.2153 31.4053 71.2153 30.488C71.2153 29.016 71.8126 27.8427 73.0073 26.968C74.2019 26.0933 75.7593 25.5173 77.6793 25.24L82.4473 24.568V23.64C82.4473 22.616 82.1486 21.816 81.5513 21.24C80.9753 20.664 80.0259 20.376 78.7033 20.376C77.7433 20.376 76.9646 20.568 76.3673 20.952C75.7913 21.336 75.3859 21.8267 75.1513 22.424C75.0233 22.744 74.7993 22.904 74.4793 22.904H73.0393C72.8046 22.904 72.6233 22.84 72.4953 22.712C72.3886 22.5627 72.3353 22.392 72.3353 22.2C72.3353 21.88 72.4526 21.4853 72.6873 21.016C72.9433 20.5467 73.3273 20.088 73.8393 19.64C74.3513 19.192 75.0019 18.8187 75.7913 18.52C76.6019 18.2 77.5833 18.04 78.7353 18.04C80.0153 18.04 81.0926 18.2107 81.9673 18.552C82.8419 18.872 83.5246 19.3093 84.0153 19.864C84.5273 20.4187 84.8899 21.048 85.1033 21.752C85.3379 22.456 85.4553 23.1707 85.4553 23.896V34.264C85.4553 34.4773 85.3806 34.6587 85.2313 34.808C85.1033 34.936 84.9326 35 84.7193 35H83.2473C83.0126 35 82.8313 34.936 82.7033 34.808C82.5753 34.6587 82.5113 34.4773 82.5113 34.264V32.888C82.2339 33.272 81.8606 33.656 81.3913 34.04C80.9219 34.4027 80.3353 34.712 79.6313 34.968C78.9273 35.2027 78.0633 35.32 77.0393 35.32ZM77.7113 32.92C78.5859 32.92 79.3859 32.7387 80.1113 32.376C80.8366 31.992 81.4019 31.4053 81.8073 30.616C82.2339 29.8267 82.4473 28.8347 82.4473 27.64V26.744L78.7353 27.288C77.2206 27.5013 76.0793 27.864 75.3113 28.376C74.5433 28.8667 74.1593 29.496 74.1593 30.264C74.1593 30.8613 74.3299 31.3627 74.6713 31.768C75.0339 32.152 75.4819 32.44 76.0153 32.632C76.5699 32.824 77.1353 32.92 77.7113 32.92ZM90.7915 35C90.5782 35 90.3968 34.936 90.2475 34.808C90.1195 34.6587 90.0555 34.4773 90.0555 34.264V19.096C90.0555 18.8827 90.1195 18.712 90.2475 18.584C90.3968 18.4347 90.5782 18.36 90.7915 18.36H92.2955C92.5088 18.36 92.6795 18.4347 92.8075 18.584C92.9568 18.712 93.0315 18.8827 93.0315 19.096V20.504C93.5862 19.7787 94.2795 19.192 95.1115 18.744C95.9648 18.2747 97.0528 18.04 98.3755 18.04C99.7622 18.04 100.936 18.3493 101.896 18.968C102.877 19.5653 103.613 20.408 104.104 21.496C104.594 22.5627 104.84 23.8107 104.84 25.24V34.264C104.84 34.4773 104.776 34.6587 104.648 34.808C104.52 34.936 104.349 35 104.135 35H102.536C102.322 35 102.141 34.936 101.992 34.808C101.864 34.6587 101.8 34.4773 101.8 34.264V25.4C101.8 23.9067 101.437 22.744 100.712 21.912C99.9862 21.0587 98.9195 20.632 97.5115 20.632C96.1888 20.632 95.1222 21.0587 94.3115 21.912C93.5222 22.744 93.1275 23.9067 93.1275 25.4V34.264C93.1275 34.4773 93.0528 34.6587 92.9035 34.808C92.7755 34.936 92.6048 35 92.3915 35H90.7915ZM116.278 42.04C114.827 42.04 113.632 41.848 112.694 41.464C111.776 41.08 111.051 40.6107 110.518 40.056C110.006 39.5227 109.632 38.9787 109.398 38.424C109.184 37.8907 109.067 37.464 109.046 37.144C109.024 36.9307 109.088 36.7493 109.238 36.6C109.408 36.4507 109.59 36.376 109.782 36.376H111.318C111.51 36.376 111.67 36.4187 111.798 36.504C111.926 36.5893 112.032 36.7707 112.118 37.048C112.246 37.368 112.438 37.72 112.694 38.104C112.95 38.5093 113.344 38.8507 113.878 39.128C114.411 39.4267 115.158 39.576 116.118 39.576C117.12 39.576 117.963 39.4373 118.646 39.16C119.328 38.904 119.84 38.4347 120.182 37.752C120.544 37.0907 120.726 36.1733 120.726 35V32.824C120.214 33.4853 119.542 34.04 118.71 34.488C117.878 34.9147 116.832 35.128 115.574 35.128C114.379 35.128 113.355 34.9253 112.502 34.52C111.648 34.0933 110.944 33.528 110.39 32.824C109.856 32.0987 109.451 31.2773 109.174 30.36C108.918 29.4427 108.768 28.4827 108.726 27.48C108.704 26.8827 108.704 26.296 108.726 25.72C108.768 24.7173 108.918 23.7573 109.174 22.84C109.451 21.9227 109.856 21.1013 110.39 20.376C110.944 19.6507 111.648 19.0853 112.502 18.68C113.355 18.2533 114.379 18.04 115.574 18.04C116.854 18.04 117.91 18.2853 118.742 18.776C119.595 19.2453 120.288 19.8213 120.822 20.504V19.128C120.822 18.9147 120.886 18.7333 121.014 18.584C121.163 18.4347 121.344 18.36 121.558 18.36H123.03C123.243 18.36 123.424 18.4347 123.574 18.584C123.723 18.7333 123.798 18.9147 123.798 19.128V34.648C123.798 36.0773 123.552 37.3467 123.062 38.456C122.592 39.5653 121.803 40.44 120.694 41.08C119.606 41.72 118.134 42.04 116.278 42.04ZM116.214 32.568C117.28 32.568 118.134 32.3227 118.774 31.832C119.435 31.3413 119.915 30.7227 120.214 29.976C120.534 29.2293 120.704 28.472 120.726 27.704C120.747 27.4053 120.758 27.0427 120.758 26.616C120.758 26.168 120.747 25.7947 120.726 25.496C120.704 24.728 120.534 23.9707 120.214 23.224C119.915 22.4773 119.435 21.8587 118.774 21.368C118.134 20.8773 117.28 20.632 116.214 20.632C115.147 20.632 114.294 20.8773 113.654 21.368C113.014 21.8373 112.555 22.4667 112.278 23.256C112 24.024 111.84 24.856 111.798 25.752C111.776 26.3067 111.776 26.872 111.798 27.448C111.84 28.344 112 29.1867 112.278 29.976C112.555 30.744 113.014 31.3733 113.654 31.864C114.294 32.3333 115.147 32.568 116.214 32.568Z" fill="#40A9FF"/>
<path d="M129.708 35C129.473 35 129.292 34.936 129.164 34.808C129.036 34.6587 128.972 34.4773 128.972 34.264V13.368C128.972 13.1333 129.036 12.952 129.164 12.824C129.292 12.6747 129.473 12.6 129.708 12.6H142.924C143.158 12.6 143.34 12.6747 143.468 12.824C143.596 12.952 143.66 13.1333 143.66 13.368V14.584C143.66 14.8187 143.596 15 143.468 15.128C143.34 15.256 143.158 15.32 142.924 15.32H132.044V22.328H142.22C142.454 22.328 142.636 22.4027 142.764 22.552C142.892 22.68 142.956 22.8613 142.956 23.096V24.28C142.956 24.4933 142.892 24.6747 142.764 24.824C142.636 24.952 142.454 25.016 142.22 25.016H132.044V32.28H143.18C143.414 32.28 143.596 32.344 143.724 32.472C143.852 32.6 143.916 32.7813 143.916 33.016V34.264C143.916 34.4773 143.852 34.6587 143.724 34.808C143.596 34.936 143.414 35 143.18 35H129.708ZM147.194 35C147.023 35 146.863 34.936 146.714 34.808C146.586 34.68 146.522 34.52 146.522 34.328C146.522 34.264 146.532 34.1893 146.554 34.104C146.596 33.9973 146.66 33.88 146.746 33.752L152.314 26.488L147.098 19.608C147.012 19.48 146.948 19.3733 146.906 19.288C146.884 19.2027 146.874 19.1173 146.874 19.032C146.874 18.84 146.938 18.68 147.066 18.552C147.194 18.424 147.354 18.36 147.546 18.36H149.178C149.412 18.36 149.583 18.424 149.69 18.552C149.818 18.6587 149.924 18.7653 150.01 18.872L154.266 24.408L158.522 18.904C158.607 18.7973 158.703 18.68 158.81 18.552C158.938 18.424 159.119 18.36 159.354 18.36H160.922C161.114 18.36 161.274 18.424 161.402 18.552C161.53 18.68 161.594 18.84 161.594 19.032C161.594 19.1173 161.572 19.2027 161.53 19.288C161.508 19.3733 161.455 19.48 161.37 19.608L156.09 26.552L161.658 33.752C161.743 33.88 161.796 33.9867 161.818 34.072C161.86 34.1573 161.882 34.2427 161.882 34.328C161.882 34.52 161.818 34.68 161.69 34.808C161.562 34.936 161.402 35 161.21 35H159.514C159.3 35 159.13 34.9467 159.002 34.84C158.874 34.7333 158.767 34.6267 158.682 34.52L154.17 28.664L149.658 34.52C149.572 34.6053 149.466 34.712 149.338 34.84C149.231 34.9467 149.06 35 148.826 35H147.194ZM171.494 35.32C169.98 35.32 168.668 35.032 167.558 34.456C166.47 33.8587 165.628 33.016 165.03 31.928C164.433 30.8187 164.113 29.496 164.07 27.96C164.049 27.64 164.038 27.2133 164.038 26.68C164.038 26.1467 164.049 25.72 164.07 25.4C164.113 23.864 164.433 22.552 165.03 21.464C165.628 20.3547 166.47 19.512 167.558 18.936C168.668 18.3387 169.98 18.04 171.494 18.04C172.732 18.04 173.788 18.2107 174.662 18.552C175.558 18.8933 176.294 19.3307 176.87 19.864C177.446 20.3973 177.873 20.9733 178.15 21.592C178.449 22.2107 178.609 22.7973 178.63 23.352C178.652 23.5653 178.588 23.736 178.438 23.864C178.289 23.992 178.108 24.056 177.894 24.056H176.358C176.145 24.056 175.985 24.0133 175.878 23.928C175.772 23.8213 175.665 23.6507 175.558 23.416C175.174 22.3707 174.652 21.6347 173.99 21.208C173.329 20.7813 172.508 20.568 171.526 20.568C170.246 20.568 169.201 20.9627 168.39 21.752C167.601 22.5413 167.174 23.8107 167.11 25.56C167.089 26.328 167.089 27.0747 167.11 27.8C167.174 29.5707 167.601 30.8507 168.39 31.64C169.201 32.408 170.246 32.792 171.526 32.792C172.508 32.792 173.329 32.5787 173.99 32.152C174.652 31.7253 175.174 30.9893 175.558 29.944C175.665 29.7093 175.772 29.5493 175.878 29.464C175.985 29.3573 176.145 29.304 176.358 29.304H177.894C178.108 29.304 178.289 29.368 178.438 29.496C178.588 29.624 178.652 29.7947 178.63 30.008C178.609 30.456 178.513 30.9147 178.342 31.384C178.172 31.8533 177.894 32.3333 177.51 32.824C177.148 33.2933 176.689 33.72 176.134 34.104C175.58 34.4667 174.908 34.7653 174.118 35C173.35 35.2133 172.476 35.32 171.494 35.32ZM183.199 35C182.985 35 182.804 34.936 182.655 34.808C182.527 34.6587 182.463 34.4773 182.463 34.264V13.016C182.463 12.8027 182.527 12.632 182.655 12.504C182.804 12.3547 182.985 12.28 183.199 12.28H184.799C185.033 12.28 185.215 12.3547 185.343 12.504C185.471 12.632 185.535 12.8027 185.535 13.016V20.472C186.111 19.7467 186.815 19.16 187.647 18.712C188.479 18.264 189.535 18.04 190.815 18.04C192.201 18.04 193.375 18.3493 194.335 18.968C195.316 19.5653 196.052 20.408 196.543 21.496C197.055 22.5627 197.311 23.8107 197.311 25.24V34.264C197.311 34.4773 197.247 34.6587 197.119 34.808C196.991 34.936 196.809 35 196.575 35H194.975C194.761 35 194.58 34.936 194.431 34.808C194.303 34.6587 194.239 34.4773 194.239 34.264V25.4C194.239 23.9067 193.876 22.744 193.151 21.912C192.425 21.0587 191.359 20.632 189.951 20.632C188.628 20.632 187.561 21.0587 186.751 21.912C185.94 22.744 185.535 23.9067 185.535 25.4V34.264C185.535 34.4773 185.471 34.6587 185.343 34.808C185.215 34.936 185.033 35 184.799 35H183.199ZM206.571 35.32C205.504 35.32 204.533 35.1067 203.659 34.68C202.784 34.2533 202.08 33.6773 201.547 32.952C201.013 32.2267 200.747 31.4053 200.747 30.488C200.747 29.016 201.344 27.8427 202.539 26.968C203.733 26.0933 205.291 25.5173 207.211 25.24L211.979 24.568V23.64C211.979 22.616 211.68 21.816 211.083 21.24C210.507 20.664 209.557 20.376 208.235 20.376C207.275 20.376 206.496 20.568 205.899 20.952C205.323 21.336 204.917 21.8267 204.683 22.424C204.555 22.744 204.331 22.904 204.011 22.904H202.571C202.336 22.904 202.155 22.84 202.027 22.712C201.92 22.5627 201.867 22.392 201.867 22.2C201.867 21.88 201.984 21.4853 202.219 21.016C202.475 20.5467 202.859 20.088 203.371 19.64C203.883 19.192 204.533 18.8187 205.323 18.52C206.133 18.2 207.115 18.04 208.267 18.04C209.547 18.04 210.624 18.2107 211.499 18.552C212.373 18.872 213.056 19.3093 213.547 19.864C214.059 20.4187 214.421 21.048 214.635 21.752C214.869 22.456 214.987 23.1707 214.987 23.896V34.264C214.987 34.4773 214.912 34.6587 214.763 34.808C214.635 34.936 214.464 35 214.251 35H212.779C212.544 35 212.363 34.936 212.235 34.808C212.107 34.6587 212.043 34.4773 212.043 34.264V32.888C211.765 33.272 211.392 33.656 210.923 34.04C210.453 34.4027 209.867 34.712 209.163 34.968C208.459 35.2027 207.595 35.32 206.571 35.32ZM207.243 32.92C208.117 32.92 208.917 32.7387 209.643 32.376C210.368 31.992 210.933 31.4053 211.339 30.616C211.765 29.8267 211.979 28.8347 211.979 27.64V26.744L208.267 27.288C206.752 27.5013 205.611 27.864 204.843 28.376C204.075 28.8667 203.691 29.496 203.691 30.264C203.691 30.8613 203.861 31.3627 204.203 31.768C204.565 32.152 205.013 32.44 205.547 32.632C206.101 32.824 206.667 32.92 207.243 32.92ZM220.323 35C220.109 35 219.928 34.936 219.779 34.808C219.651 34.6587 219.587 34.4773 219.587 34.264V19.096C219.587 18.8827 219.651 18.712 219.779 18.584C219.928 18.4347 220.109 18.36 220.323 18.36H221.827C222.04 18.36 222.211 18.4347 222.339 18.584C222.488 18.712 222.563 18.8827 222.563 19.096V20.504C223.117 19.7787 223.811 19.192 224.643 18.744C225.496 18.2747 226.584 18.04 227.907 18.04C229.293 18.04 230.467 18.3493 231.427 18.968C232.408 19.5653 233.144 20.408 233.635 21.496C234.125 22.5627 234.371 23.8107 234.371 25.24V34.264C234.371 34.4773 234.307 34.6587 234.179 34.808C234.051 34.936 233.88 35 233.667 35H232.067C231.853 35 231.672 34.936 231.523 34.808C231.395 34.6587 231.331 34.4773 231.331 34.264V25.4C231.331 23.9067 230.968 22.744 230.243 21.912C229.517 21.0587 228.451 20.632 227.043 20.632C225.72 20.632 224.653 21.0587 223.843 21.912C223.053 22.744 222.659 23.9067 222.659 25.4V34.264C222.659 34.4773 222.584 34.6587 222.435 34.808C222.307 34.936 222.136 35 221.923 35H220.323ZM245.809 42.04C244.358 42.04 243.164 41.848 242.225 41.464C241.308 41.08 240.582 40.6107 240.049 40.056C239.537 39.5227 239.164 38.9787 238.929 38.424C238.716 37.8907 238.598 37.464 238.577 37.144C238.556 36.9307 238.62 36.7493 238.769 36.6C238.94 36.4507 239.121 36.376 239.313 36.376H240.849C241.041 36.376 241.201 36.4187 241.329 36.504C241.457 36.5893 241.564 36.7707 241.649 37.048C241.777 37.368 241.969 37.72 242.225 38.104C242.481 38.5093 242.876 38.8507 243.409 39.128C243.942 39.4267 244.689 39.576 245.649 39.576C246.652 39.576 247.494 39.4373 248.177 39.16C248.86 38.904 249.372 38.4347 249.713 37.752C250.076 37.0907 250.257 36.1733 250.257 35V32.824C249.745 33.4853 249.073 34.04 248.241 34.488C247.409 34.9147 246.364 35.128 245.105 35.128C243.91 35.128 242.886 34.9253 242.033 34.52C241.18 34.0933 240.476 33.528 239.921 32.824C239.388 32.0987 238.982 31.2773 238.705 30.36C238.449 29.4427 238.3 28.4827 238.257 27.48C238.236 26.8827 238.236 26.296 238.257 25.72C238.3 24.7173 238.449 23.7573 238.705 22.84C238.982 21.9227 239.388 21.1013 239.921 20.376C240.476 19.6507 241.18 19.0853 242.033 18.68C242.886 18.2533 243.91 18.04 245.105 18.04C246.385 18.04 247.441 18.2853 248.273 18.776C249.126 19.2453 249.82 19.8213 250.353 20.504V19.128C250.353 18.9147 250.417 18.7333 250.545 18.584C250.694 18.4347 250.876 18.36 251.089 18.36H252.561C252.774 18.36 252.956 18.4347 253.105 18.584C253.254 18.7333 253.329 18.9147 253.329 19.128V34.648C253.329 36.0773 253.084 37.3467 252.593 38.456C252.124 39.5653 251.334 40.44 250.225 41.08C249.137 41.72 247.665 42.04 245.809 42.04ZM245.745 32.568C246.812 32.568 247.665 32.3227 248.305 31.832C248.966 31.3413 249.446 30.7227 249.745 29.976C250.065 29.2293 250.236 28.472 250.257 27.704C250.278 27.4053 250.289 27.0427 250.289 26.616C250.289 26.168 250.278 25.7947 250.257 25.496C250.236 24.728 250.065 23.9707 249.745 23.224C249.446 22.4773 248.966 21.8587 248.305 21.368C247.665 20.8773 246.812 20.632 245.745 20.632C244.678 20.632 243.825 20.8773 243.185 21.368C242.545 21.8373 242.086 22.4667 241.809 23.256C241.532 24.024 241.372 24.856 241.329 25.752C241.308 26.3067 241.308 26.872 241.329 27.448C241.372 28.344 241.532 29.1867 241.809 29.976C242.086 30.744 242.545 31.3733 243.185 31.864C243.825 32.3333 244.678 32.568 245.745 32.568ZM264.711 35.32C262.513 35.32 260.764 34.648 259.463 33.304C258.161 31.9387 257.447 30.0827 257.319 27.736C257.297 27.4587 257.287 27.1067 257.287 26.68C257.287 26.232 257.297 25.8693 257.319 25.592C257.404 24.0773 257.756 22.7547 258.375 21.624C258.993 20.472 259.836 19.5867 260.903 18.968C261.991 18.3493 263.26 18.04 264.711 18.04C266.332 18.04 267.687 18.3813 268.775 19.064C269.884 19.7467 270.727 20.7173 271.303 21.976C271.879 23.2347 272.167 24.7067 272.167 26.392V26.936C272.167 27.1707 272.092 27.352 271.943 27.48C271.815 27.608 271.644 27.672 271.431 27.672H260.359C260.359 27.6933 260.359 27.736 260.359 27.8C260.359 27.864 260.359 27.9173 260.359 27.96C260.401 28.8347 260.593 29.656 260.935 30.424C261.276 31.1707 261.767 31.7787 262.407 32.248C263.047 32.7173 263.815 32.952 264.711 32.952C265.479 32.952 266.119 32.8347 266.631 32.6C267.143 32.3653 267.559 32.1093 267.879 31.832C268.199 31.5333 268.412 31.3093 268.519 31.16C268.711 30.8827 268.86 30.7227 268.967 30.68C269.073 30.616 269.244 30.584 269.479 30.584H271.015C271.228 30.584 271.399 30.648 271.527 30.776C271.676 30.8827 271.74 31.0427 271.719 31.256C271.697 31.576 271.527 31.9707 271.207 32.44C270.887 32.888 270.428 33.336 269.831 33.784C269.233 34.232 268.508 34.6053 267.655 34.904C266.801 35.1813 265.82 35.32 264.711 35.32ZM260.359 25.464H269.127V25.368C269.127 24.408 268.945 23.5547 268.583 22.808C268.241 22.0613 267.74 21.4747 267.079 21.048C266.417 20.6 265.628 20.376 264.711 20.376C263.793 20.376 263.004 20.6 262.343 21.048C261.703 21.4747 261.212 22.0613 260.871 22.808C260.529 23.5547 260.359 24.408 260.359 25.368V25.464Z" fill="#A8071A"/>
<defs>
<clipPath id="clip0_37_4310">
<rect width="48" height="48" fill="white"/>
</clipPath>
</defs>
</svg>
